<svg width="386" height="328" viewBox="0 0 386 328" fill="none" xmlns="http://www.w3.org/2000/svg">
<path fill-rule="evenodd" clip-rule="evenodd" d="M295.647 0.169865C293.709 0.309865 291.444 0.664865 290.613 0.958865C289.783 1.25386 287.261 1.71686 285.009 1.98886C282.521 2.28886 280.584 2.69986 280.072 3.03486C279.608 3.33886 277.915 3.87486 276.31 4.22586C274.704 4.57686 273.151 5.07786 272.858 5.33986C272.565 5.60086 271.419 6.06786 270.311 6.37686C269.204 6.68586 267.92 7.20186 267.459 7.52486C266.998 7.84786 265.865 8.38886 264.942 8.72886C264.019 9.06786 263.038 9.52487 262.761 9.74387C262.484 9.96387 261.427 10.5429 260.412 11.0309C258.269 12.0609 257.043 12.7919 254.036 14.8329C246.892 19.6829 241.867 24.2599 236.239 31.0439C232.321 35.7649 232.037 36.1389 231.385 37.4189C231.056 38.0649 230.431 39.0209 229.996 39.5429C229.56 40.0639 229.204 40.6339 229.204 40.8089C229.204 40.9839 228.676 41.8949 228.03 42.8339C227.384 43.7729 226.855 44.7399 226.855 44.9819C226.855 45.2239 226.511 45.8489 226.091 46.3699C225.671 46.8919 225.124 47.9229 224.877 48.6609C224.629 49.3989 224.132 50.3249 223.773 50.7189C223.414 51.1129 222.899 52.2849 222.627 53.3239C222.356 54.3619 221.762 55.9129 221.307 56.7689C220.852 57.6239 220.479 58.7659 220.479 59.3059C220.479 59.8459 220.095 61.4329 219.625 62.8319C219.155 64.2309 218.551 67.0509 218.281 69.0989C218.012 71.1469 217.617 73.7279 217.403 74.8359C216.68 78.5869 216.852 91.6459 217.692 96.8149C219.311 106.772 219.317 106.852 218.502 107.667L217.776 108.393L165.214 108.48C107.13 108.576 111.806 108.759 110.571 106.337C110.207 105.622 109.72 104.916 109.489 104.769C109.259 104.621 108.82 104.017 108.515 103.426C108.209 102.836 107.492 101.771 106.921 101.061C105.307 99.0549 101.014 94.0709 100.044 93.0779C99.5632 92.5859 99.0192 92.0249 98.8353 91.8299C97.7943 90.7339 95.6342 89.0939 94.4202 88.4789C93.6523 88.0909 92.9733 87.6369 92.9092 87.4709C92.8462 87.3049 92.0402 86.7659 91.1172 86.2719C90.1943 85.7779 89.0612 85.1679 88.6003 84.9149C86.2172 83.6119 83.0612 82.2509 81.1652 81.7089C79.9942 81.3739 78.3572 80.8319 77.5262 80.5039C76.3192 80.0279 74.9722 79.9049 70.8152 79.8889L65.6133 79.8689L63.0132 81.1289C61.4412 81.8909 60.4123 82.5939 60.4123 82.9059C60.4123 83.1909 60.0072 83.8279 59.5132 84.3219C58.2492 85.5859 58.1773 88.7349 59.3753 90.3379C60.3213 91.6039 60.0643 92.2169 57.6763 94.4049C54.3872 97.4179 49.3383 102.629 49.3383 103.01C49.3383 103.24 48.9763 103.82 48.5323 104.298C48.0893 104.777 47.3423 106.007 46.8733 107.032C46.4043 108.057 45.8753 108.896 45.6993 108.896C45.5233 108.896 45.1923 109.689 44.9643 110.658C44.7363 111.627 44.1973 113.03 43.7653 113.775C43.2393 114.685 42.8173 116.285 42.4833 118.641C42.2093 120.572 41.7543 122.906 41.4713 123.829C40.7893 126.052 40.7803 132.572 41.4563 135.07C41.7303 136.086 42.1852 138.759 42.4673 141.011C42.8162 143.805 43.2423 145.671 43.8063 146.884C44.9223 149.28 44.9153 151.371 43.7883 152.886C42.0203 155.261 41.2793 156.429 40.5093 158.057C40.0723 158.98 39.4643 159.942 39.1583 160.195C38.8513 160.449 38.6003 160.915 38.6003 161.232C38.6003 161.55 38.1473 162.716 37.5933 163.824C37.0392 164.932 36.2903 166.698 35.9293 167.749C34.1993 172.777 34.6253 172.654 18.8603 172.654C2.75025 172.654 1.39825 173.029 0.361252 177.788C-0.121748 180.003 -0.119749 228.056 0.363251 230.308C1.37125 235.012 2.90625 235.461 18.8173 235.708C34.4383 235.951 33.7323 235.71 35.6283 241.446C36.0243 242.646 36.7753 244.433 37.2973 245.418C37.8183 246.403 38.3443 247.736 38.4653 248.381C38.5863 249.026 38.8793 249.628 39.1173 249.719C39.3543 249.811 39.8893 250.723 40.3043 251.746C40.7203 252.769 41.4123 253.959 41.8433 254.39C42.2743 254.821 42.6273 255.402 42.6273 255.681C42.6273 255.96 43.0593 256.684 43.5873 257.29C44.1153 257.897 44.7803 258.846 45.0653 259.399C45.3503 259.953 45.9753 260.772 46.4543 261.22C46.9333 261.667 47.3253 262.175 47.3253 262.349C47.3253 262.522 47.7163 263.062 48.1943 263.549C48.6723 264.035 49.5943 265.112 50.2423 265.943C52.1573 268.398 53.8073 270.38 54.7883 271.404C55.2943 271.932 55.8983 272.631 56.1303 272.957C56.8453 273.96 63.7252 279.825 66.1052 281.461C66.5732 281.782 67.8622 282.726 68.9692 283.558C70.0772 284.39 71.5492 285.376 72.2412 285.748C72.9333 286.121 73.4992 286.58 73.4992 286.767C73.4992 286.954 74.1623 287.392 74.9723 287.739C75.7832 288.086 76.5572 288.551 76.6932 288.771C76.8292 288.992 77.7682 289.538 78.7793 289.985C79.7903 290.432 80.8262 291.007 81.0812 291.261C81.3352 291.516 82.3392 291.984 83.3102 292.3C84.2822 292.616 85.3032 293.069 85.5802 293.306C85.8572 293.544 87.1403 294.07 88.4323 294.477C89.7243 294.883 91.0832 295.401 91.4522 295.629C91.8213 295.856 92.9542 296.238 93.9692 296.476C94.9842 296.715 96.8722 297.257 98.1642 297.68C99.4562 298.103 101.872 298.696 103.533 298.997C105.194 299.299 107.912 299.824 109.573 300.166C111.234 300.507 113.946 300.947 115.598 301.144C120.239 301.696 119.943 300.944 120.144 312.709L120.311 322.546L121.294 323.962C121.834 324.741 122.589 325.543 122.972 325.744C123.354 325.945 124.094 326.465 124.616 326.899L125.564 327.688L150.119 327.686C172.916 327.685 174.737 327.642 175.551 327.099C180.171 324.015 179.966 324.631 180.209 313.091C180.421 302.968 180.427 302.934 181.867 302.083C183.442 301.153 216.349 301.219 217.506 302.154C218.297 302.794 218.298 302.807 218.469 312.365C218.629 321.348 218.682 321.993 219.33 322.882C219.71 323.403 220.117 324.087 220.234 324.402C220.351 324.717 221.043 325.351 221.772 325.811C222.5 326.271 223.162 326.844 223.242 327.084C223.502 327.863 274.446 327.711 274.884 326.93C275.065 326.605 275.734 326.122 276.37 325.856C277.006 325.591 277.526 325.214 277.526 325.02C277.526 324.826 277.849 324.345 278.243 323.951C279.366 322.828 279.523 321.397 279.532 312.19C279.542 301.153 279.364 301.599 284.095 300.728C285.557 300.458 288.944 299.834 291.62 299.34C294.296 298.847 297.827 298.001 299.467 297.461C301.106 296.922 302.692 296.478 302.99 296.477C303.289 296.475 304.288 296.125 305.211 295.699C306.134 295.273 307.644 294.721 308.566 294.473C309.489 294.225 310.654 293.738 311.156 293.391C311.657 293.043 312.809 292.539 313.716 292.269C314.623 292 315.539 291.57 315.752 291.314C315.964 291.058 316.865 290.536 317.753 290.154C318.642 289.772 319.563 289.225 319.801 288.939C320.038 288.652 320.854 288.118 321.614 287.75C323.074 287.044 324.685 285.986 326.352 284.641C326.905 284.194 327.736 283.632 328.197 283.393C328.659 283.154 329.505 282.565 330.078 282.085C330.652 281.605 331.909 280.607 332.872 279.869C333.835 279.131 335.037 278.149 335.544 277.688C339.272 274.292 341.866 271.702 343.974 269.271C345.32 267.717 346.772 266.069 347.199 265.607C348.582 264.114 349.868 262.449 350.691 261.089C351.133 260.358 351.727 259.513 352.011 259.212C353.813 257.3 361.173 242.798 362.087 239.355C362.319 238.482 362.709 237.602 362.954 237.399C363.198 237.196 363.653 235.872 363.964 234.456C364.274 233.041 364.812 231.32 365.157 230.633C365.503 229.946 365.94 228.21 366.128 226.774C366.317 225.339 366.882 222.881 367.384 221.312L368.298 218.46V204.701V190.943L367.392 188.426C366.893 187.042 366.328 184.645 366.135 183.099C365.932 181.471 365.514 179.848 365.141 179.24C364.787 178.663 364.314 177.21 364.088 176.01C363.863 174.81 363.392 173.351 363.042 172.767C362.693 172.183 362.17 170.9 361.881 169.915C361.591 168.93 361.087 167.671 360.759 167.117C360.432 166.564 359.892 165.356 359.559 164.433C359.226 163.51 358.791 162.549 358.593 162.296C358.238 161.846 357.652 160.747 354.791 155.169C352.872 151.425 352.67 151.9 358.818 145.665C363.867 140.545 365.018 139.315 367.323 136.581C369.077 134.5 370.352 132.725 371.654 130.551C372.392 129.318 373.3 127.83 373.672 127.244C374.044 126.657 374.64 125.498 374.996 124.668C375.353 123.837 375.92 122.752 376.257 122.257C376.594 121.762 377.091 120.728 377.362 119.96C377.633 119.193 378.152 118.012 378.515 117.338C378.878 116.663 379.408 115.292 379.692 114.292C379.976 113.291 380.432 112.132 380.705 111.715C380.978 111.299 381.498 109.595 381.862 107.93C382.225 106.264 382.749 104.555 383.025 104.13C383.331 103.662 383.741 101.383 384.07 98.3249C384.369 95.5569 384.83 92.3389 385.096 91.1739C385.766 88.2419 385.701 83.1519 384.927 77.9139C384.567 75.4829 384.105 71.8319 383.9 69.8019C383.688 67.7149 383.309 65.7779 383.027 65.3439C382.753 64.9219 382.246 63.2529 381.9 61.6329C381.554 60.0139 380.975 58.1689 380.614 57.5339C380.253 56.8989 379.777 55.6239 379.556 54.7009C379.334 53.7789 378.864 52.5539 378.509 51.9799C378.155 51.4059 377.641 50.3009 377.367 49.5249C377.093 48.7489 376.587 47.7079 376.242 47.2129C375.898 46.7169 375.445 45.8079 375.236 45.1919C375.027 44.5759 374.462 43.4439 373.979 42.6759C373.497 41.9069 372.399 40.0669 371.539 38.5859C370.679 37.1049 369.709 35.5939 369.383 35.2299C369.057 34.8649 367.648 33.2079 366.252 31.5469C362.6 27.2009 354.096 18.8879 351.855 17.4719C351.301 17.1219 350.651 16.5589 350.41 16.2209C350.169 15.8839 349.81 15.6069 349.613 15.6069C349.416 15.6069 348.351 15.0029 347.245 14.2649C346.139 13.5269 345.044 12.9229 344.811 12.9229C344.578 12.9229 344.211 12.7109 343.996 12.4519C343.781 12.1929 342.744 11.5749 341.69 11.0789C340.637 10.5829 339.548 9.98486 339.271 9.74986C338.994 9.51486 338.013 9.04586 337.09 8.70686C336.167 8.36886 335.035 7.82786 334.573 7.50586C334.112 7.18486 332.847 6.66986 331.763 6.36286C330.679 6.05486 329.32 5.52986 328.743 5.19486C328.166 4.85986 326.712 4.40386 325.513 4.18286C324.313 3.96086 322.808 3.48186 322.168 3.11786C321.398 2.68086 319.667 2.30086 317.051 1.99486C314.877 1.74086 312.078 1.23586 310.832 0.872865C308.17 0.0978646 301.151 -0.227135 295.647 0.169865ZM310.915 14.9429C312.207 15.1229 313.793 15.4939 314.439 15.7669C315.085 16.0399 316.929 16.4839 318.538 16.7549C320.219 17.0379 321.859 17.5289 322.397 17.9109C322.911 18.2749 324.142 18.7389 325.132 18.9409C326.122 19.1429 327.361 19.6129 327.884 19.9859C328.407 20.3579 329.511 20.8669 330.338 21.1149C331.164 21.3639 332.266 21.8679 332.787 22.2349C333.308 22.6019 334.112 23.0169 334.573 23.1569C335.743 23.5139 340.388 26.3409 340.714 26.8959C340.862 27.1469 341.166 27.3519 341.391 27.3519C342.081 27.3519 347.936 32.3309 350.967 35.4939C354.067 38.7289 355.341 40.1659 356.699 41.9599C357.542 43.0719 358.57 44.4319 358.985 44.9799C359.4 45.5279 360.114 46.6829 360.573 47.5469C361.031 48.4099 361.548 49.2049 361.722 49.3119C361.895 49.4189 362.305 50.2229 362.633 51.0969C362.96 51.9719 363.565 53.2159 363.976 53.8619C364.388 54.5079 364.901 55.7159 365.116 56.5469C365.332 57.3779 365.699 58.2839 365.933 58.5599C366.474 59.2019 367.124 61.1239 367.124 62.0839C367.124 62.4899 367.519 63.5629 368.003 64.4669C368.595 65.5739 369.034 67.1819 369.346 69.3939C369.6 71.1999 370.093 73.5409 370.439 74.5959C371.675 78.3569 371.619 92.2269 370.356 95.2509C370.066 95.9449 369.662 97.8259 369.459 99.4319C369.244 101.129 368.753 103.058 368.287 104.037C367.846 104.964 367.313 106.549 367.103 107.561C366.893 108.572 366.383 110.003 365.969 110.742C365.554 111.48 365.022 112.798 364.785 113.671C364.549 114.545 364.16 115.421 363.921 115.62C363.682 115.818 363.216 116.733 362.885 117.652C362.554 118.572 362.026 119.601 361.711 119.939C361.397 120.276 360.747 121.29 360.267 122.191C359.787 123.092 358.867 124.508 358.223 125.339C357.578 126.169 356.788 127.239 356.467 127.717C354.08 131.259 342.593 142.117 341.233 142.117C341.055 142.117 340.352 142.561 339.671 143.103C338.99 143.645 338.031 144.186 337.541 144.306C337.051 144.425 336.312 144.883 335.899 145.323C335.486 145.763 334.428 146.362 333.548 146.654C332.667 146.946 331.869 147.389 331.774 147.637C331.679 147.885 330.828 148.344 329.884 148.658C328.94 148.972 327.533 149.574 326.756 149.998C325.98 150.421 324.765 150.869 324.057 150.993C323.349 151.118 322.202 151.515 321.509 151.876C320.816 152.237 319.055 152.748 317.596 153.011C316.136 153.275 313.458 153.805 311.645 154.191C307.478 155.076 294.924 155.191 291.285 154.377C290.085 154.109 287.367 153.568 285.244 153.176C283.122 152.784 280.932 152.189 280.379 151.854C279.825 151.52 278.513 151.071 277.463 150.857C276.413 150.643 275.205 150.198 274.778 149.869C274.352 149.539 273.323 149.041 272.493 148.762C271.662 148.482 270.395 147.855 269.677 147.367C268.959 146.879 268.178 146.48 267.941 146.48C267.704 146.48 267.084 146.121 266.562 145.682C266.04 145.243 264.911 144.554 264.052 144.15C263.193 143.746 262.226 143.124 261.902 142.767C261.579 142.41 261.132 142.117 260.909 142.117C260.686 142.117 260.143 141.773 259.703 141.353C259.262 140.932 258.298 140.191 257.56 139.705C254.555 137.73 245.983 129.088 245.983 128.035C245.983 127.859 245.597 127.294 245.127 126.779C243.943 125.484 242.782 123.769 241.88 121.983C241.46 121.153 240.794 120.211 240.399 119.891C240.005 119.571 239.582 118.909 239.459 118.419C239.336 117.93 238.881 117.059 238.447 116.484C238.013 115.91 237.469 114.796 237.236 114.009C237.004 113.223 236.613 112.413 236.367 112.209C236.122 112.005 235.603 110.771 235.214 109.466C234.826 108.161 234.22 106.557 233.869 105.902C233.518 105.247 233.231 104.428 233.231 104.081C233.231 103.734 232.848 101.844 232.381 99.8809C231.913 97.9179 231.467 96.0099 231.389 95.6409C230.504 91.4359 230.593 77.7569 231.535 73.2429C232.84 66.9859 233.673 63.6509 234.089 63.0149C234.357 62.6049 234.802 61.4059 235.077 60.3519C235.351 59.2969 235.94 57.8959 236.385 57.2389C236.83 56.5819 237.297 55.5489 237.422 54.9449C237.548 54.3409 237.994 53.4349 238.415 52.9319C238.835 52.4279 239.295 51.6389 239.435 51.1779C239.576 50.7159 240.201 49.6389 240.824 48.7839C241.446 47.9289 241.956 47.0809 241.956 46.9009C241.956 46.7199 242.404 45.9849 242.951 45.2679C243.499 44.5499 244.442 43.3009 245.048 42.4919C248.035 38.5029 252.436 33.7629 255.589 31.1359C258.795 28.4659 259.301 28.0839 260.328 27.5579C260.928 27.2509 261.419 26.8699 261.419 26.7109C261.419 26.5519 261.985 26.1549 262.677 25.8289C263.369 25.5019 264.402 24.8819 264.972 24.4499C265.542 24.0169 266.524 23.4879 267.153 23.2729C267.783 23.0579 268.659 22.6039 269.099 22.2639C269.54 21.9239 270.64 21.4259 271.545 21.1579C272.449 20.8889 273.57 20.3699 274.036 20.0039C274.501 19.6369 275.742 19.1669 276.792 18.9579C277.842 18.7499 279.121 18.2799 279.635 17.9129C280.172 17.5309 281.817 17.0339 283.495 16.7469C285.103 16.4719 287.027 16.0199 287.771 15.7419C290.687 14.6529 305.25 14.1499 310.915 14.9429ZM300.009 25.2109C297.516 26.1029 295.983 26.8109 295.983 27.0709C295.983 27.2429 295.577 27.7879 295.081 28.2839C294.479 28.8869 294.094 29.7299 293.92 30.8279C293.509 33.4329 292.303 34.3179 287.911 35.2419C286.44 35.5509 284.858 36.1569 283.953 36.7559C283.123 37.3059 282.249 37.7549 282.011 37.7549C281.772 37.7549 281.06 38.2079 280.43 38.7619C279.799 39.3149 279.152 39.7709 278.992 39.7729C278.58 39.7809 273.499 44.9509 273.499 45.3639C273.499 45.5509 273.227 45.9509 272.894 46.2529C270.856 48.0969 267.908 56.7529 267.56 61.9159C267.246 66.5729 270.042 76.1019 272.662 79.3009C272.917 79.6129 273.71 80.5859 274.422 81.4619C275.572 82.8749 276.73 83.9239 280.379 86.8549C280.932 87.2999 281.763 87.7769 282.224 87.9159C282.686 88.0549 283.521 88.5109 284.08 88.9289C284.639 89.3479 285.998 89.8759 287.1 90.1039C288.202 90.3319 289.782 90.8779 290.611 91.3179C291.44 91.7579 292.304 92.1169 292.532 92.1169C293.808 92.1169 293.969 93.6929 293.962 106.111C293.952 121.726 294.188 121.052 288.6 121.447C281.758 121.931 277.97 127.897 281.896 132.005C282.446 132.58 282.895 133.201 282.895 133.385C282.895 134.057 285.494 134.804 288.759 135.072C292.657 135.391 293.314 135.855 293.929 138.72C294.126 139.639 294.631 140.751 295.051 141.19C295.471 141.63 295.966 142.247 296.15 142.562C296.335 142.878 297.528 143.431 298.801 143.792L301.117 144.448L303.331 143.689C305.517 142.938 308.063 139.955 308.063 138.143C308.063 136.165 309.42 135.089 312.929 134.284C315.555 133.681 319.544 131.967 321.262 130.704C322.012 130.152 322.805 129.701 323.026 129.701C323.247 129.701 323.516 129.472 323.623 129.191C323.731 128.911 324.351 128.367 325.001 127.984C325.652 127.6 326.184 127.123 326.184 126.924C326.184 126.724 326.675 126.073 327.275 125.475C328.97 123.788 330.082 122.269 330.691 120.812C330.998 120.077 331.523 119.172 331.858 118.8C332.192 118.428 332.723 117.067 333.037 115.775C333.352 114.483 333.859 113.049 334.166 112.587C335.076 111.216 334.942 101.836 333.985 100.003C333.6 99.2649 333.111 97.7909 332.898 96.7279C332.685 95.6649 332.165 94.3819 331.742 93.8759C331.32 93.3699 330.856 92.5809 330.712 92.1219C330.219 90.5489 326.48 86.2669 323.794 84.1999C321.054 82.0909 317.303 80.0689 314.607 79.2449C307.353 77.0289 308.006 78.6979 308.129 62.7049C308.251 46.8909 307.797 48.2479 313.073 47.9269C318.439 47.5999 321.15 45.2299 321.15 40.8659C321.15 39.1689 319.919 36.1609 319.077 35.8009C318.937 35.7419 318.252 35.3029 317.554 34.8269C316.517 34.1189 315.674 33.9039 312.95 33.6549C309.126 33.3039 308.488 33.0539 308.195 31.7889C307.261 27.7569 302.835 24.2009 300.009 25.2109ZM293.204 49.9189C294.471 52.2469 294.247 74.4679 292.94 76.1309L292.28 76.9689L290.02 75.9569C278.966 71.0019 278.958 53.8209 290.009 49.5859C292.42 48.6619 292.524 48.6719 293.204 49.9189ZM312.768 93.9149C315.518 95.3259 317.336 97.1149 319.004 100.052L320.31 102.352L320.305 106.547C320.3 110.118 320.201 110.91 319.634 111.875C319.268 112.498 318.743 113.418 318.466 113.919C316.499 117.482 311.266 120.966 309.389 119.961C308.131 119.288 308.027 118.131 308.131 105.969C308.255 91.4159 308.196 91.5679 312.768 93.9149ZM81.0942 96.7979C81.8572 96.9949 82.6783 97.3919 82.9183 97.6809C83.1582 97.9699 83.9682 98.5189 84.7192 98.8999C86.4782 99.7939 90.3313 103.107 92.4033 105.507C95.4553 109.043 95.7002 109.361 96.3512 110.638C96.7093 111.341 97.1592 111.916 97.3493 111.916C97.5393 111.916 97.9312 112.481 98.2192 113.172C98.5082 113.862 99.1042 114.855 99.5443 115.379C99.9853 115.902 100.345 116.524 100.345 116.76C100.345 116.997 100.776 118.005 101.304 119C101.831 119.995 102.452 121.639 102.684 122.654C102.915 123.669 103.319 124.841 103.58 125.257C105.653 128.564 105.671 149.358 103.603 153.402C103.332 153.932 102.997 154.894 102.857 155.539C102.48 157.29 101.627 158.896 101.075 158.896C100.055 158.896 97.7923 155.291 97.3112 152.898C97.1022 151.859 96.5813 150.482 96.1533 149.836C95.7253 149.19 95.2083 147.851 95.0033 146.861C94.7982 145.87 94.3493 144.662 94.0042 144.176C93.6592 143.69 93.1352 142.347 92.8402 141.193C92.5452 140.038 92.0693 138.735 91.7822 138.297C91.4952 137.859 90.9802 136.52 90.6372 135.322C90.2952 134.124 89.7852 132.784 89.5052 132.345C89.2253 131.906 88.7522 130.576 88.4542 129.39C88.1562 128.204 87.7612 127.051 87.5772 126.829C87.2332 126.415 85.5262 121.565 84.0412 116.782C83.5822 115.305 82.9222 113.493 82.5752 112.755C82.2272 112.017 81.7612 110.507 81.5392 109.4C81.3172 108.293 80.8612 107.038 80.5252 106.611C80.1892 106.184 79.7373 104.976 79.5212 103.926C79.3042 102.876 78.7673 101.399 78.3272 100.645C77.1123 98.5629 77.6252 95.8379 79.1492 96.2789C79.4562 96.3669 80.3322 96.6009 81.0942 96.7979ZM66.5822 109.366C66.8802 109.994 67.1242 110.789 67.1242 111.133C67.1242 111.477 67.4473 112.36 67.8412 113.096C68.2362 113.831 68.8392 115.409 69.1813 116.602C69.5223 117.795 70.1202 119.449 70.5102 120.277C71.7672 122.953 71.2493 125.109 69.0612 126.294C68.4982 126.599 67.6553 127.264 67.1892 127.772C66.7232 128.279 66.1792 128.695 65.9812 128.695C65.7832 128.695 65.2422 129.064 64.7783 129.515C63.9513 130.32 62.4912 131.607 59.9963 133.73C58.1323 135.317 56.3013 135.481 55.7353 134.113C55.0713 132.511 55.3843 122.834 56.1463 121.413C56.4623 120.822 56.9383 119.41 57.2023 118.274C57.4673 117.139 58.0713 115.651 58.5453 114.968C59.0183 114.285 59.4053 113.548 59.4053 113.33C59.4053 112.924 60.3232 111.781 62.4702 109.513C64.1482 107.74 65.7822 107.681 66.5822 109.366ZM225.612 123.116C225.944 123.277 226.574 124.117 227.012 124.982C227.451 125.848 228.031 126.74 228.303 126.965C228.574 127.19 228.991 127.86 229.229 128.454C229.467 129.048 230.049 130.002 230.523 130.575C230.997 131.147 231.65 132.053 231.973 132.588C233.286 134.76 234.559 136.405 238.147 140.563C241.266 144.178 247.512 150.171 248.16 150.171C248.298 150.171 248.909 150.586 249.518 151.094C251.127 152.435 253.348 154.025 254.791 154.87C255.483 155.275 256.05 155.722 256.05 155.863C256.05 156.005 256.711 156.373 257.519 156.681C258.327 156.99 259.251 157.533 259.573 157.889C259.894 158.244 260.706 158.711 261.375 158.925C262.045 159.139 263.063 159.665 263.638 160.094C264.213 160.523 265.119 160.976 265.651 161.1C266.184 161.225 267.3 161.742 268.13 162.25C268.961 162.757 270.371 163.349 271.265 163.564C272.158 163.779 273.291 164.239 273.782 164.587C274.272 164.935 275.806 165.4 277.191 165.622C278.575 165.843 280.275 166.312 280.968 166.663C281.757 167.062 283.518 167.423 285.666 167.625C287.557 167.802 291.042 168.192 293.41 168.491C300.348 169.367 318.064 168.211 320.982 166.692C321.536 166.404 323.329 165.898 324.965 165.568C326.602 165.238 328.188 164.747 328.489 164.477C328.79 164.207 329.995 163.739 331.167 163.437C332.338 163.135 333.615 162.591 334.005 162.228C334.394 161.866 335.323 161.408 336.069 161.212C336.815 161.015 337.748 160.648 338.143 160.395C338.847 159.945 340.497 160.158 341.488 160.827C341.979 161.158 344.821 165.893 345.134 166.9C345.268 167.335 345.73 168.208 346.16 168.841C346.589 169.474 347.046 170.478 347.174 171.072C347.301 171.665 347.748 172.755 348.167 173.493C348.585 174.232 349.116 175.666 349.347 176.681C349.578 177.696 350.054 178.936 350.405 179.436C350.756 179.936 351.26 181.581 351.525 183.09C351.791 184.599 352.305 186.455 352.668 187.214C354.945 191.975 354.847 219.542 352.541 223.095C352.279 223.499 351.849 225.086 351.586 226.622C351.305 228.257 350.825 229.795 350.427 230.333C350.054 230.838 349.569 232.149 349.351 233.245C349.133 234.341 348.673 235.634 348.329 236.118C347.986 236.602 347.46 237.837 347.162 238.862C346.864 239.888 346.354 241.078 346.028 241.506C345.703 241.935 345.17 243.001 344.844 243.876C344.518 244.75 344.109 245.554 343.935 245.662C343.761 245.77 343.163 246.715 342.607 247.763C341.433 249.974 340.266 251.736 339.348 252.688C338.992 253.057 338.509 253.737 338.274 254.198C338.04 254.659 337.567 255.339 337.222 255.708C336.878 256.077 335.971 257.134 335.206 258.057C331.511 262.52 322.337 270.977 321.191 270.977C320.987 270.977 320.63 271.291 320.398 271.676C320.166 272.061 319.287 272.729 318.445 273.16C317.603 273.591 316.722 274.175 316.488 274.457C316.254 274.738 315.546 275.14 314.913 275.349C314.28 275.557 313.615 276.005 313.433 276.343C313.252 276.682 312.385 277.223 311.507 277.547C310.628 277.871 309.607 278.389 309.238 278.7C308.868 279.01 307.887 279.527 307.056 279.848C306.226 280.169 305.364 280.583 305.142 280.767C304.516 281.284 298.474 283.369 295.479 284.102C294.003 284.463 291.813 285.047 290.613 285.4C287.758 286.239 284.235 286.656 277.862 286.906C273.073 287.093 272.457 287.192 270.098 288.149L267.535 289.188L266.511 291.408L265.486 293.628L265.382 302.595C265.28 311.413 265.265 311.575 264.514 312.326L263.749 313.091H249.23C236.133 313.091 234.626 313.035 233.841 312.52L232.971 311.95L232.82 302.453C232.662 292.537 232.631 292.323 231.028 290.118C230.196 288.975 229.394 288.508 226.619 287.553C224.287 286.751 173.068 287.015 171.654 287.837C171.1 288.159 170.493 288.423 170.304 288.424C169.527 288.429 167.459 290.545 167.088 291.713C166.85 292.464 166.613 296.665 166.489 302.317L166.285 311.678L165.337 312.384C163.927 313.436 136.436 313.497 135.28 312.451C134.597 311.834 134.573 311.518 134.557 303.223L134.54 294.634L133.424 291.989L132.308 289.345L130.001 288.337C127.812 287.381 127.369 287.315 121.318 287.058C112.205 286.67 110.609 286.505 107.224 285.595C105.563 285.149 103.147 284.538 101.855 284.237C99.1352 283.604 94.5442 282.012 92.1242 280.863C91.2012 280.425 89.7663 279.748 88.9362 279.359C86.4132 278.176 84.6732 277.213 84.0202 276.636C83.6782 276.335 82.7653 275.77 81.9902 275.38C81.2152 274.99 80.2022 274.293 79.7402 273.831C79.2773 273.368 78.6692 272.99 78.3882 272.99C78.1072 272.99 77.6342 272.618 77.3363 272.164C77.0393 271.71 76.4743 271.237 76.0833 271.112C74.1923 270.512 66.9653 264.083 63.2013 259.652C62.6133 258.959 61.6143 257.789 60.9823 257.05C60.3503 256.312 59.5913 255.236 59.2963 254.658C59.0013 254.081 58.5203 253.516 58.2283 253.404C57.9363 253.292 57.4763 252.67 57.2053 252.021C56.9343 251.373 56.5653 250.842 56.3863 250.842C56.2073 250.842 55.6842 250.098 55.2233 249.188C54.7623 248.278 54.2143 247.429 54.0053 247.3C53.7963 247.171 53.2573 246.292 52.8063 245.346C52.3553 244.401 51.6993 243.099 51.3483 242.453C50.1963 240.332 48.7293 236.947 48.2203 235.238C47.9463 234.315 47.4762 233.081 47.1753 232.494C46.8753 231.908 46.4153 230.405 46.1533 229.154C45.6383 226.692 43.8942 223.774 42.1833 222.513C41.2703 221.84 40.7973 221.812 28.9283 221.73C15.2563 221.636 14.9153 221.584 14.1633 219.506C13.8823 218.729 13.7683 214.141 13.7683 203.65V188.887L14.6913 188.007C16.2893 186.482 16.8873 186.413 28.4943 186.413C43.1473 186.413 44.9303 185.828 46.1433 180.627C46.3923 179.563 46.8993 178.052 47.2713 177.268C47.6433 176.484 48.1213 175.182 48.3313 174.375C48.6863 173.019 49.8273 170.481 51.3683 167.621C51.7163 166.975 52.3753 165.667 52.8333 164.715C53.2903 163.763 53.8273 162.884 54.0253 162.762C54.2233 162.64 54.7643 161.833 55.2293 160.97C56.0283 159.482 56.5382 158.746 58.8963 155.671C61.4863 152.296 62.9052 150.702 66.9812 146.592C75.0672 138.438 77.1472 137.693 78.1912 142.574C78.3942 143.522 78.9173 144.827 79.3532 145.473C79.7902 146.119 80.3122 147.446 80.5132 148.422C80.7152 149.398 81.1722 150.606 81.5283 151.106C81.8853 151.607 82.4193 152.992 82.7152 154.184C83.0102 155.375 83.4613 156.583 83.7172 156.868C83.9722 157.153 84.4313 158.367 84.7373 159.567C85.0433 160.767 85.4883 162.051 85.7262 162.42C85.9632 162.79 86.5492 164.3 87.0293 165.776C87.5082 167.252 88.5232 170.196 89.2842 172.319C90.0452 174.441 91.0243 177.334 91.4603 178.747C93.6752 185.937 97.6922 188.81 102.249 186.462C104.644 185.228 105.773 183.751 108.381 178.443C108.948 177.289 109.532 176.346 109.678 176.346C109.824 176.346 110.222 175.553 110.561 174.584C110.901 173.615 111.445 172.52 111.77 172.151C112.096 171.782 112.597 170.681 112.883 169.705C113.169 168.729 113.703 167.55 114.07 167.084C114.436 166.619 114.909 165.379 115.121 164.329C115.333 163.279 115.796 161.917 116.151 161.304C116.505 160.69 117.005 158.803 117.262 157.109C117.519 155.416 117.981 153.351 118.287 152.52C119.609 148.941 119.733 129.627 118.456 126.088C117.999 124.821 118.61 123.52 119.912 122.99C120.869 122.6 224.808 122.724 225.612 123.116ZM64.3852 177.302C62.4172 177.791 60.5303 178.438 60.1903 178.739C59.8512 179.04 59.0233 179.568 58.3503 179.913C53.4423 182.429 50.6362 190.115 53.0713 194.371C55.2412 198.164 61.7932 198.772 64.0502 195.391C66.8783 191.154 67.1572 190.883 68.9782 190.6C70.5542 190.356 72.7913 191.76 73.7262 193.58C75.9023 197.819 81.5773 198.992 84.9863 195.907C87.5223 193.611 87.4262 188.905 84.7582 184.735C80.2452 177.682 73.1962 175.11 64.3852 177.302Z" fill="#52702A"/>
</svg>
